<?xml version="1.0" encoding="UTF-8"?>
<svg width="240px" height="240px" viewBox="0 0 240 240" version="1.1" xmlns="http://www.w3.org/2000/svg" xmlns:xlink="http://www.w3.org/1999/xlink">
    <!-- Generator: Sketch 46.2 (44496) - http://www.bohemiancoding.com/sketch -->
    <title>Rectangle</title>
    <desc>Created with Sketch.</desc>
    <defs></defs>
    <g id="Page-1" stroke="none" stroke-width="1" fill="none" fill-rule="evenodd">
        <path d="M239.526979,92.0818116 C238.392459,88.6343236 235.34768,86.1131687 231.701702,85.5879281 L160.527563,75.4078107 L128.693136,11.8918998 C125.425331,5.36936674 114.574669,5.36936674 111.306865,11.8918998 L79.4724369,75.4078107 L8.29829804,85.5879281 C4.65232036,86.1131687 1.61723786,88.6247737 0.473021468,92.0818116 C-0.6614982,95.5483996 0.279086478,99.3396815 2.92629901,101.870386 L54.4354307,151.319399 L42.2757072,221.128647 C41.6551152,224.709834 43.1484146,228.338769 46.1253166,230.468381 C49.1216121,232.617092 53.0778857,232.894037 56.3456902,231.194167 L120.004849,198.228158 L183.65431,231.184617 C185.070036,231.919953 186.631212,232.282848 188.172995,232.282848 C190.180223,232.282848 192.177753,231.671658 193.874684,230.458831 C196.861283,228.329219 198.354582,224.700284 197.724293,221.119098 L185.56457,151.30985 L237.073701,101.860836 C239.720914,99.3301317 240.661498,95.5483996 239.526979,92.0818116 L239.526979,92.0818116 Z" id="Shape" fill="#000000" fill-rule="nonzero"></path>
    </g>
</svg>