<svg height="24" viewBox="0 0 25 24" width="25" xmlns="http://www.w3.org/2000/svg">
  <g fill="currentColor" transform="translate(0 1)">
    <!-- FIXME: React-Native-SVG doesn't correctly render currentColor+opacity on Android

    <path d="m18.033 6.25v11.25c0 .276142-.223858.5-.5.5h-13.533v2.5.0000001c0 .276142.223858.5.5.5h16c.276142 0 .5-.223858.5-.5v-11.50000002h.0329z" opacity="0.2" />
    -->
    <path d="m24.837833 11.130897-12-11v.00000001c-.191356-.174803-.484444-.174803-.6758-.00000002l-11.99999999 11.00000001h.00000004c-.2036.186617-.217367.50295-.0307501.70655.186617.2036.50295.217367.70655.0307501l2.1622-1.98200004v10.61380004.0000002c.00000012.828427.671573 1.5 1.5 1.5h15.99999995.0000001c.828427 0 1.5-.671573 1.5-1.5v-10.61330002l2.162 1.98140002c.2036.186617.519933.17285.70655-.0307501.186617-.2036.17285-.519933-.0307501-.70655zm-3.8378-2.1309v11.5c0 .276142-.223858.5-.5.5h-16-.00000002c-.276142 0-.5-.223858-.5-.5v-11.5h-.033l8.53300002-7.8223 8.5329 7.8223z" />
  </g>
</svg>
