<svg height="25" viewBox="0 0 20 25" width="20" xmlns="http://www.w3.org/2000/svg">
  <g fill="none" transform="translate(0 1)">
    <path d="m16.7499999 1v18.5c-.0003714.2760041-.2519933.4996691-.562499.5h-15.1875009v1.5c.00037138.2760042.25199327.4996692.56249891.5h16.87500109c.3105056-.0003304.5621276-.2239948.5625-.5v-20c-.0003714-.2760039-.2519921-.4996679-.5624978-.5z" fill="currentColor" opacity="0.2"/>
    <path d="m18.3333332 0c.9204745 0 1.6666668.67157316 1.6666668 1.5v20c0 .8284272-.7461923 1.5-1.6666668 1.5h-16.66666654c-.92047444 0-1.66666666-.6715728-1.66666666-1.5v-20l.00681112-.13653056c.07663703-.76444291.79051857-1.36346944 1.65985554-1.36346944zm.0000002.99999999h-16.66666667c-.30667222.000331-.55518765.223996-.55555445.5v20.00000001c.00036778.2760051.24888334.4996695.55555556.5h16.66666666c.3066722-.0003309.5551876-.2239959.5555544-.5v-20.00000001c-.0003678-.276005-.2488833-.49966938-.5555555-.5zm-11.18683361 14.14654131c.193762-.1871411.50095-.1871411.694712-.0000001.1986262.191839.2041272.508374.0122882.707l-2.00000003 2c-.19525.195191-.51175.195191-.707 0l-.99999996-1c-.18714099-.193762-.18714099-.50095.00000001-.694712.191839-.1986262.508374-.2041272.707-.0122882l.64649999.6465zm8.35350021.8534587c.276142 0 .5.223858.5.5s-.223858.5-.5.5h-6.00000002c-.276142 0-.5-.223858-.5-.5s.223858-.5.5-.5zm-8.35350021-5.8534587c.193762-.18714109.50095-.18714109.694712-.0000001.1986262.191839.2041272.508374.01228817.707l-2 2c-.19525.195191-.51175.195191-.70699996 0l-1-1c-.18714099-.193762-.18714099-.50095.00000001-.694712.191839-.1986262.508374-.2041272.70699999-.0122882l.6465.6465zm8.35350021.8534587c.276142 0 .5.223858.5.5s-.223858.5-.5.5h-6.00000002c-.276142 0-.5-.223858-.5-.5s.223858-.5.5-.5zm-8.34121183-5.86578997c.198626-.1918398.515161-.1863378.707.0122882.1918398.198626.1863378.515161-.0122882.707l-2.00000001 2.00000001c-.19525.19519093-.51175.19519093-.707-.00000007l-.99999996-.99999997c-.18714099-.193762-.18714099-.50095.00000001-.694712.191839-.1986262.508374-.2041272.707-.0122882l.64649999.6465 1.64649997-1.64649977zm8.34121183.86578997c.276142 0 .5.223858.5.5s-.223858.5-.5.5h-6.00000002c-.276142 0-.5-.223858-.5-.5s.223858-.5.5-.5z" fill="currentColor"/>
  </g>
</svg>
