<svg height="26" viewBox="0 0 21 26" width="21" xmlns="http://www.w3.org/2000/svg">
  <g fill="currentColor" transform="translate(.5 1)">
    <path d="m18.85354 18.26762-.9749-.9746-.0000002-.0000002c-.564393-.561524-.880754-1.32546-.8785909-2.1216v-7.17139997-.00000576c.0281938-3.83778-3.060079-6.97178-6.897859-6.99998-.38047703-.00279603-.76054103.0256612-1.13636003.0850848h-.00000003c2.89912996.47455 5.02913996 2.97719 5.03421906 5.9149v7.17140003.0000088c-.0026773 1.06151.4192909 2.08 1.1719009 2.8286h-12.80979998-.00000003c-.0739804.10264-.154374.200502-.2407.293l-.9749.9746h.00000004c-.0940166.0935819-.146757.220841-.14650094.353494v.3789h18.00000001v-.3789.0000004c.00026-.132654-.0524808-.259917-.1464991-.3535z" opacity=".2" />
    <path d="m19.5607 17.5605-.9749-.9746-.0000001-.0000001c-.375148-.375141-.585872-.883966-.5858-1.4145v-7.1714c0-4.41828-3.58172-8-7.99999997-8-4.41828003 0-8 3.58172-8 8v7.1714.0004728c0 .530554-.21080998 1.03937-.58603398 1.41446l-.975.9746h-.00000002c-.281046.281245-.438966.662566-.438966 1.06017v1.3788972h6.1414-.00000014c.542017 2.1310723 2.70898 3.4192623 4.84006001 2.8772423 1.41375-.359573 2.51767-1.46349 2.87724-2.8772423h6.1413001v-1.3788977.0000203c0-.397798-.1580141-.779306-.4392861-1.06061zm-9.5607 4.4394999c-1.26708998-.0040987-2.39454998-.8049429-2.81569998-2h5.63130008c-.421108 1.19504-1.54854 1.99589-2.8156 2zm8.9999991-2.9999999h-18.00000005v-.3789.0000003c-.00025813-.132654.05248265-.259917.14650095-.3535l.9749-.9746h-.00000001c.564393-.561524.880754-1.32546.87859906-2.1216v-7.17139996.00001745c0-3.86599 3.13401094-7 7-7 3.86598095 0 6.99998095 3.13399 7.00000005 6.99996v7.17140001-.0000065c-.0021284.796157.3142679 1.56009.8786959 2.1216l.9749.9746c.0939885.0936046.146695.220874.1464041.353522z" />
  </g>
</svg>
