<svg height="23" viewBox="0 0 22 23" width="22" xmlns="http://www.w3.org/2000/svg">
  <g fill="currentColor" transform="translate(0 .282609)">
    <path d="m17.1113993 3h-.0000003c3.4221797 4.37133019 2.6527507 10.689184-1.7185884 14.1114073-3.639609 2.8493342-8.7532192 2.8493342-12.3928106.0000006 3.40687604 4.3866426 9.7247388 5.1809007 14.1114078 1.7740335 4.3866427-3.4068759 5.1809008-9.72473839 1.7740336-14.11140726-.514976-.66307645-1.1109598-1.25905845-1.7740336-1.77403414z" opacity=".2"/>
    <path d="m14.5555556 10.5555555h-3.1111111v-3.11111106c0-.24545955-.1989849-.44444444-.4444445-.44444444-.2454595 0-.4444444.19898489-.4444444.44444444v3.11111106h-3.11111114-.00000001c-.24545956 0-.44444445.1989849-.44444445.4444445 0 .2454595.19898489.4444444.44444445.4444444h3.11111115v3.1111111.0000001c0 .2454595.1989849.4444444.4444444.4444444.2454596 0 .4444445-.1989849.4444445-.4444444v-3.1111111h3.1111111c.2454595 0 .4444444-.1989849.4444444-.4444445 0-.2454595-.1989849-.4444444-.4444444-.4444444z"/>
    <path d="m11 0c-6.0751328 0-11 4.9248672-11 11s4.9248672 11 11 11 11-4.9248672 11-11c0-6.07513232-4.9248672-11-11-11zm.0000005 21.12h-.0000005c-5.58911756 0-10.11999996-4.5308824-10.11999996-10.12s4.5308824-10.12 10.11999996-10.12c5.5891176 0 10.1200004 4.5308824 10.1200004 10.12v-.0002844c-.0060996 5.5865304-4.533188 10.11384-10.119736 10.1202844z"/>
  </g>
</svg>
