<svg height="24" viewBox="0 0 24 24" width="24" xmlns="http://www.w3.org/2000/svg">
  <g fill="currentColor" transform="translate(.5 .282609)">
    <!-- FIXME: React-Native-SVG doesn't correctly render currentColor+opacity on Android

    <path d="m14.0111783 3.25403825h.0000001c2.4756231 3.46538459 1.6732631 8.28151695-1.7921205 10.75714015-2.68137006 1.9155395-6.28363953 1.9155304-8.96501925-.0000002v-.0000008c2.46430083 3.4767059 7.28043325 4.2974125 10.75713915 1.8331117s4.2974125-7.2804332 1.8331117-10.75713911c-.5032838-.7100457-1.123066-1.32983065-1.8331117-1.83311174z" opacity=".2"/>
    -->
    <path d="m15.9486537 15.3059333.0000001-.0000001c3.2025615-3.5573799 2.9149321-9.0373872-.6424479-12.23994872-3.5573799-3.20256152-9.03738713-2.91493209-12.23994865.64244783-3.20256152 3.55737991-2.91493209 9.03738719.64244783 12.23994869 3.29632982 2.9675547 8.30117102 2.9675547 11.59750082-.0000002l6.6356592 6.6359318c.1804906.1743233.4681245.1693245.6424478-.0111662.1700542-.1760707.1700542-.4552111 0-.6312818zm-6.40730392 1.95933h-.00000034c-4.26579904 0-7.72391304-3.4581145-7.72391304-7.72391352 0-4.26579904 3.458114-7.72391304 7.72391304-7.72391304 4.26579906 0 7.72391336 3.458114 7.72391336 7.72391304v-.00022674c-.0048825 4.26372726-3.4599678 7.71900606-7.72368592 7.72414026z" />
  </g>
</svg>
