<?xml version="1.0" encoding="UTF-8"?>
<svg version="1.1" viewBox="0 0 20 21" xmlns="http://www.w3.org/2000/svg" xmlns:xlink="http://www.w3.org/1999/xlink">
    <!--Generated by IJSVG (https://github.com/curthard89/IJSVG)-->
    <g transform="translate(-14, -617)">
        <g transform="translate(-6, 604)">
            <g transform="translate(20, 13.2826)">
                <path fill="#000000" fill-rule="evenodd" stroke="none" stroke-width="1" d="M0,0.999445c0,-0.551978 0.455306,-0.999445 0.991803,-0.999445h18.0164c0.547758,0 0.991803,0.445814 0.991803,0.999445v18.4359c0,0.551978 -0.455306,0.999445 -0.991803,0.999445h-18.0164c-0.547758,0 -0.991803,-0.445814 -0.991803,-0.999445v-18.4359Zm3.52941,2.60669v4.80818h4.70588v-4.80818h-4.70588Zm6.47059,0v1.20205h7.05882v-1.20205h-7.05882Zm-6.47059,7.21228v6.01023h13.5294v-6.01023h-13.5294Zm6.47059,-3.60614v1.20205h5.88235v-1.20205h-5.88235Z"></path>
            </g>
        </g>
    </g>
</svg>