<?xml version="1.0" encoding="UTF-8"?>
<svg version="1.1" viewBox="0 0 20 21" xmlns="http://www.w3.org/2000/svg" xmlns:xlink="http://www.w3.org/1999/xlink">
    <!--Generated by IJSVG (https://github.com/curthard89/IJSVG)-->
    <g transform="translate(-245, -617)">
        <g transform="translate(-6, 604)">
            <g transform="translate(20, 13.2826)">
                <g transform="translate(231, 0)">
                    <g fill="#000000" fill-rule="evenodd" stroke="none" stroke-width="1">
                        <path d="M18.4792,17.8804h-6.125c0,1.41128 -1.09681,2.55435 -2.45098,2.55435c-1.35049,0 -2.44608,-1.14307 -2.44608,-2.55435h-6.12745c-0.526961,0 -0.996324,-0.351223 -1.16422,-0.873587c-0.165441,-0.521087 0.00735294,-1.09582 0.428922,-1.42533c1.23775,-0.961712 1.96814,-2.47772 1.96691,-4.08696v-3.83152c0,-4.23255 3.29167,-7.66304 7.35049,-7.66304c4.05882,0 7.34926,3.43049 7.34926,7.66304v3.83152c-0.0036765,1.60924 0.723039,3.12524 1.96078,4.08696c0.422794,0.332065 0.594363,0.906793 0.426471,1.43043c-0.169118,0.521087 -0.639706,0.87231 -1.16912,0.868478Z" transform="translate(0.28799, 0)"></path>
                    </g>
                </g>
            </g>
        </g>
    </g>
</svg>