<?xml version="1.0" encoding="UTF-8"?>
<svg version="1.1" viewBox="0 0 20 21" xmlns="http://www.w3.org/2000/svg" xmlns:xlink="http://www.w3.org/1999/xlink">
    <!--Generated by IJSVG (https://github.com/curthard89/IJSVG)-->
    <g transform="translate(-170, -617)">
        <g transform="translate(-6, 604)">
            <g transform="translate(20, 13.2826)">
                <g transform="translate(156, 0)">
                    <path fill="#000000" fill-rule="evenodd" stroke="none" stroke-width="1" d="M10,20.4348c-5.5225,0 -10,-4.57484 -10,-10.2174c0,-5.64255 4.4775,-10.2174 10,-10.2174c5.5225,0 10,4.57484 10,10.2174c0,5.64255 -4.4775,10.2174 -10,10.2174Zm5,-8.94022h-3.75v3.83152c0,0.705 -0.56,1.27717 -1.25,1.27717c-0.69,0 -1.25,-0.572174 -1.25,-1.27717v-3.83152h-3.75c-0.69,0 -1.25,-0.572174 -1.25,-1.27717c0,-0.705 0.56,-1.27717 1.25,-1.27717h3.75v-3.83152c0,-0.705 0.56,-1.27717 1.25,-1.27717c0.69,0 1.25,0.572174 1.25,1.27717v3.83152h3.75c0.69,0 1.25,0.572174 1.25,1.27717c0,0.705 -0.56,1.27717 -1.25,1.27717Z"></path>
                </g>
            </g>
        </g>
    </g>
</svg>