<?xml version="1.0" encoding="UTF-8"?>
<svg version="1.1" viewBox="0 0 20 21" xmlns="http://www.w3.org/2000/svg" xmlns:xlink="http://www.w3.org/1999/xlink">
    <!--Generated by IJSVG (https://github.com/curthard89/IJSVG)-->
    <g transform="translate(-97, -617)">
        <g transform="translate(-6, 604)">
            <g transform="translate(20, 13.2826)">
                <g transform="translate(83, 0)">
                    <path fill="#000000" fill-rule="evenodd" stroke="none" stroke-width="1" d="M17.8693,20.0561c0.487515,0.505777 1.27754,0.505777 1.76506,0c0.487515,-0.5045 0.487515,-1.32064 0,-1.82642l-3.85012,-3.93382c1.08753,-1.49179 1.73255,-3.34119 1.73255,-5.34642c0,-4.94282 -3.92137,-8.94944 -8.75777,-8.94944c-4.83765,0 -8.75902,4.00662 -8.75902,8.94944c0,4.94282 3.92137,8.94944 8.75902,8.94944c1.96881,0 3.78762,-0.664151 5.25016,-1.78427l3.86012,3.94148v0Zm-15.3667,-11.1067c4.44089e-16,-3.53022 2.80009,-6.39246 6.25645,-6.39246c3.45511,0 6.2552,2.86096 6.2552,6.39246c0,3.53022 -2.80009,6.39246 -6.25395,6.39246c-3.45511,0 -6.25645,-2.86096 -6.25645,-6.39246h-0.00125003Z"></path>
                </g>
            </g>
        </g>
    </g>
</svg>