<?xml version="1.0" encoding="UTF-8"?>
<svg version="1.1" viewBox="0 0 20 16" xmlns="http://www.w3.org/2000/svg" xmlns:xlink="http://www.w3.org/1999/xlink">
    <!--Generated by IJSVG (https://github.com/curthard89/IJSVG)-->
    <g transform="translate(-325, -619)">
        <g transform="translate(-6, 604)">
            <g transform="translate(20, 13.2826)">
                <g transform="translate(311, 2.04348)">
                    <path fill="#000000" fill-rule="evenodd" stroke="none" stroke-width="1" d="M1.25,15.3261h17.5c0.69,0 1.25,-0.572174 1.25,-1.27717c0,-0.705 -0.56,-1.27717 -1.25,-1.27717h-17.5c-0.69,0 -1.25,0.572174 -1.25,1.27717c0,0.705 0.56,1.27717 1.25,1.27717Zm0,-6.38587h17.5c0.69,0 1.25,-0.572174 1.25,-1.27717c0,-0.705 -0.56,-1.27717 -1.25,-1.27717h-17.5c-0.69,0 -1.25,0.572174 -1.25,1.27717c0,0.705 0.56,1.27717 1.25,1.27717Zm0,-6.38587h17.5c0.69,0 1.25,-0.572174 1.25,-1.27717c0,-0.705 -0.56,-1.27717 -1.25,-1.27717h-17.5c-0.69,0 -1.25,0.572174 -1.25,1.27717c0,0.705 0.56,1.27717 1.25,1.27717Z"></path>
                </g>
            </g>
        </g>
    </g>
</svg>